<svg xmlns="http://www.w3.org/2000/svg" version="1.1" xmlns:xlink="http://www.w3.org/1999/xlink" xmlns:svgjs="http://svgjs.com/svgjs" width="512" height="512" x="0" y="0" viewBox="0 0 32 32" style="enable-background:new 0 0 512 512" xml:space="preserve" class=""><g><g xmlns="http://www.w3.org/2000/svg" id="Folder"><path d="m25 8h-11.5317l-1.9783-3.4932a1 1 0 0 0 -.87-.5068h-8.62a1 1 0 0 0 -1 1v22a1.0007 1.0007 0 0 0 .8174.9834 1.0674 1.0674 0 0 0 .1831.0166 1 1 0 0 0 .9331-.6406l4.7534-12.3594h17.313a1 1 0 0 0 1-1v-5a1 1 0 0 0 -1-1z" fill="#000d78" data-original="#e8a113" class=""></path><path d="m30.8242 13.4336a1 1 0 0 0 -.8242-.4336h-23a1.0012 1.0012 0 0 0 -.9336.6406l-5 13a1 1 0 0 0 .9336 1.3594h23a1.0012 1.0012 0 0 0 .9336-.6406l5-13a1.0017 1.0017 0 0 0 -.1094-.9258z" fill="#001dff" data-original="#ffc431" class=""></path></g></g></svg>